<?xml version="1.0" encoding="utf-8"?>
<!-- Generator: Adobe Illustrator 26.3.1, SVG Export Plug-In . SVG Version: 6.00 Build 0)  -->
<svg version="1.1" id="Capa_1" xmlns="http://www.w3.org/2000/svg" xmlns:xlink="http://www.w3.org/1999/xlink" x="0px" y="0px"
	 viewBox="0 0 554 554" style="enable-background:new 0 0 554 554;" xml:space="preserve">
<style type="text/css">
	.st0{fill:#614D40;}
</style>
<g>
	<g>
		<g>
			<path class="st0" d="M219.8,234.3c0.1,0.5,0.1,0.5-0.1,0.3c-0.1,0.6-0.3,1.2-0.4,2c0.2-1.3,0.4-1.8,0.6-1.9
				C220,234.5,219.9,234.4,219.8,234.3C219.8,234.3,219.8,234.3,219.8,234.3z"/>
			<path class="st0" d="M423.7,248.6c-31.4-46.7-74.4-78.5-126-97.9c-25.1-6.5-57.9,9.8-58.6,10.6c-1.7,0.6-3.4,1.3-5.1,2.3
				c-5.3,3.3-8.7,7.4-10.7,11.9c-8,4.7-16.3,8.8-25.2,11.7c-9.6,3.1-19.2,3.5-24.3,0.5c0.3,0.2-1.1-1-2-3.6
				c-1.6-4.8-1.2-9.1-0.8-14.4c1.1-16.1,10.1-32.5,17.7-46.2c13.7-24.9-24.3-47.1-38-22.2c-18.6,33.6-39.9,86-7.1,118.3
				c25.3,24.9,63,14.6,93.1-1.2c1.5,2.3,3.1,4.6,4.9,6.7c2,2.3,3.8,4.8,5.7,7.2c9.9,17,10.3,60.3,10.3,60.3s-34.6,118-31.7,181.7
				c1.7,38.9,62.3,39,60.5,0c-2.2-48.8,4-95.6,19.9-141.1c2.9,1.3,5.8,2.3,8.8,3c2.8,51.1,10.6,101.5,25.5,150.7
				c11.3,37.3,69.7,21.4,58.4-16.1c-17-56.3-24.2-113.1-24.6-171.7c0-4.5-2.8-17.5-3.4-20.4c-3.1-14.2-7.5-27.8-13-40.8
				c10.2,9.7,19.5,20.6,27.7,32.9C401.4,294.3,439.6,272.2,423.7,248.6z"/>
			<circle class="st0" cx="236.8" cy="105.6" r="45.1"/>
		</g>
	</g>
</g>
</svg>
