<?xml version="1.0" encoding="utf-8"?>
<!-- Generator: Adobe Illustrator 26.3.1, SVG Export Plug-In . SVG Version: 6.00 Build 0)  -->
<svg version="1.1" id="Capa_1" xmlns="http://www.w3.org/2000/svg" xmlns:xlink="http://www.w3.org/1999/xlink" x="0px" y="0px"
	 viewBox="0 0 554 554" style="enable-background:new 0 0 554 554;" xml:space="preserve">
<style type="text/css">
	.st0{fill:#614D40;}
</style>
<path class="st0" d="M238.5,90.3C164.6,104.7,105,164.2,90.4,237.9C62.9,377,188.4,480.7,282.9,466c30.6-4.8,45.7-40.6,31.6-68.2
	c-17.2-33.8,7.4-73.2,45.3-73.2h59.3c26.6,0,48.2-22,48.3-48.6C467,158.8,360.4,66.6,238.5,90.3z M158,324.6
	c-13.2,0-23.8-10.6-23.8-23.8S144.8,277,158,277s23.8,10.6,23.8,23.8S171.1,324.6,158,324.6z M181.8,229.4
	c-13.2,0-23.8-10.6-23.8-23.8c0-13.2,10.6-23.8,23.8-23.8c13.2,0,23.8,10.6,23.8,23.8C205.6,218.8,194.9,229.4,181.8,229.4z
	 M277,181.8c-13.2,0-23.8-10.6-23.8-23.8c0-13.2,10.6-23.8,23.8-23.8s23.8,10.6,23.8,23.8C300.8,171.2,290.2,181.8,277,181.8z
	 M372.2,229.4c-13.2,0-23.8-10.6-23.8-23.8c0-13.2,10.6-23.8,23.8-23.8s23.8,10.6,23.8,23.8C396,218.8,385.4,229.4,372.2,229.4z"/>
</svg>
