<?xml version="1.0" encoding="utf-8"?>
<!-- Generator: Adobe Illustrator 26.3.1, SVG Export Plug-In . SVG Version: 6.00 Build 0)  -->
<svg version="1.1" id="Capa_1" xmlns="http://www.w3.org/2000/svg" xmlns:xlink="http://www.w3.org/1999/xlink" x="0px" y="0px"
	 viewBox="0 0 554 554" style="enable-background:new 0 0 554 554;" xml:space="preserve">
<style type="text/css">
	.st0{fill:#614D40;}
</style>
<g>
	<g>
		<path class="st0" d="M429.2,104.5h-58.6c-5.7,0-10.3,4.6-10.3,10.4v14.9c0,3.3,1.6,6.4,4.2,8.4l58.6,43.2c6.8,5,16.3,0.1,16.3-8.4
			v-58C439.5,109.2,434.9,104.5,429.2,104.5z"/>
		<path class="st0" d="M439.5,331.5v-21.3c0-5.6-2.7-10.9-7.1-14.2l-71.9-53.1l-74.2-54.7c-6.1-4.5-14.4-4.5-20.5,0L119.6,295.9
			c-4.5,3.3-7.1,8.6-7.1,14.2v138.1c0,9.7,7.8,17.6,17.4,17.6h68.3c9.6,0,17.4-7.9,17.4-17.6v-127c0-9.7,7.8-17.6,17.4-17.6H319
			c9.6,0,17.4,7.9,17.4,17.6v127c0,9.7,7.8,17.6,17.4,17.6h68.3c9.6,0,17.4-7.9,17.4-17.6V331.5z"/>
		<path class="st0" d="M112.5,285.6l157-115.9c3.9-2.9,9.2-2.9,13.1,0l77.9,57.5l79.1,58.4l28.2,20.8c4.6,3.4,10.9,2.7,14.7-1.5
			l26.5-29.5c4.4-4.9,3.7-12.7-1.7-16.6l-67.8-50l-79.1-58.3l-77.9-57.4c-3.9-2.9-9.2-2.9-13,0L44.7,258.9
			c-5.3,3.9-6.1,11.7-1.7,16.6L69.5,305c3.8,4.2,10.2,4.9,14.7,1.5L112.5,285.6z"/>
	</g>
</g>
</svg>
