<?xml version="1.0" encoding="utf-8"?>
<!-- Generator: Adobe Illustrator 26.3.1, SVG Export Plug-In . SVG Version: 6.00 Build 0)  -->
<svg version="1.1" id="Capa_1" xmlns="http://www.w3.org/2000/svg" xmlns:xlink="http://www.w3.org/1999/xlink" x="0px" y="0px"
	 viewBox="0 0 554 554" style="enable-background:new 0 0 554 554;" xml:space="preserve">
<style type="text/css">
	.st0{fill:#614D40;}
</style>
<path class="st0" d="M162.7,416.6c0,14-11.4,25.4-25.4,25.4s-25.4-11.4-25.4-25.4s11.4-25.4,25.4-25.4S162.7,402.6,162.7,416.6z
	 M99.3,442c-7,0-12.7,5.7-12.7,12.7s5.7,12.7,12.7,12.7s12.7-5.7,12.7-12.7S106.3,442,99.3,442z M436.6,325.4
	c3.3,22.9-3.7,47-21.3,64.6c-14.8,14.8-34.2,22.1-53.6,22.1c-3.7,0-7.4-0.3-11-0.8c-13.9,18.6-36,30.8-61.1,30.8
	c-25,0-47.2-12.1-61.1-30.8c-3.7,0.5-7.3,0.8-11,0.8c-19.4,0-38.8-7.2-53.6-22.1c-17.6-17.6-24.5-41.7-21.3-64.6
	c-18.6-13.9-30.8-36-30.8-61.1c0-25,12.1-47.2,30.8-61.1c-3.2-22.9,3.7-47,21.3-64.6c14.8-14.8,34.2-22.1,53.6-22.1
	c3.7,0,7.4,0.3,11,0.8c13.9-18.6,36-30.8,61.1-30.8c25,0,47.2,12.1,61.1,30.8c3.7-0.5,7.3-0.8,11-0.8c19.4,0,38.8,7.2,53.6,22.1
	c17.6,17.6,24.5,41.7,21.3,64.6c18.6,13.9,30.8,36,30.8,61.1C467.4,289.3,455.3,311.5,436.6,325.4z M340.5,283.3
	c0-3.5-2.8-6.3-6.3-6.3h-88.9c-3.5,0-6.3,2.8-6.3,6.3s2.8,6.3,6.3,6.3h88.9C337.6,289.7,340.5,286.8,340.5,283.3z M340.5,257.9
	c0-3.5-2.8-6.3-6.3-6.3h-88.9c-3.5,0-6.3,2.8-6.3,6.3c0,3.5,2.8,6.3,6.3,6.3h88.9C337.6,264.3,340.5,261.4,340.5,257.9z
	 M340.5,232.6c0-3.5-2.8-6.3-6.3-6.3h-88.9c-3.5,0-6.3,2.8-6.3,6.3c0,3.5,2.8,6.3,6.3,6.3h88.9C337.6,238.9,340.5,236.1,340.5,232.6
	z"/>
</svg>
