<?xml version="1.0" encoding="utf-8"?>
<!-- Generator: Adobe Illustrator 26.3.1, SVG Export Plug-In . SVG Version: 6.00 Build 0)  -->
<svg version="1.1" id="_x32_" xmlns="http://www.w3.org/2000/svg" xmlns:xlink="http://www.w3.org/1999/xlink" x="0px" y="0px"
	 viewBox="0 0 512 512" style="enable-background:new 0 0 512 512;" xml:space="preserve">
<style type="text/css">
	.st0{fill:#614D40;}
</style>
<g>
	<polygon class="st0" points="30.3,174.8 30.3,51.7 164.7,186.2 186.2,164.7 51.7,30.3 174.8,30.3 174.8,0 0,0 0,174.8 	"/>
	<polygon class="st0" points="337.2,0 337.2,30.3 460.3,30.3 325.8,164.7 347.3,186.2 481.7,51.7 481.7,174.8 512,174.8 512,0 	"/>
	<polygon class="st0" points="164.7,325.8 30.3,460.3 30.3,337.2 0,337.2 0,512 174.8,512 174.8,481.7 51.7,481.7 186.2,347.3 	"/>
	<polygon class="st0" points="481.7,460.3 347.3,325.8 325.8,347.3 460.3,481.7 337.2,481.7 337.2,512 512,512 512,337.2 
		481.7,337.2 	"/>
</g>
</svg>
