<?xml version="1.0" encoding="utf-8"?>
<!-- Generator: Adobe Illustrator 26.3.1, SVG Export Plug-In . SVG Version: 6.00 Build 0)  -->
<svg version="1.1" id="レイヤー_1" xmlns="http://www.w3.org/2000/svg" xmlns:xlink="http://www.w3.org/1999/xlink" x="0px"
	 y="0px" viewBox="0 0 50 50" style="enable-background:new 0 0 50 50;" xml:space="preserve">
<style type="text/css">
	.st0{fill:#BFB7B2;}
</style>
<path class="st0" d="M44.6,11.8c-1.6,0.5-3.3,0.4-4.9-0.1c-3-1-5.5-1.9-7.2-3.4c-2.3-2.1-4.6-1.9-7-2.1C21,6,17,8,15,11
	c-3,4.5-6.3,8.1-12,11c-1.3,0.7-3.3,2.4-3,7c0.3,6.2,8.8,9.6,14,10c7.9,0.6,9-0.9,13-2.3c2.7-0.9,8,0,11.8,1
	c3.3,0.9,10.4,6.2,14.9,2.1c5.2-4.7,6.2-20.3,0-26.2C50.7,10.7,46.9,11.2,44.6,11.8z"/>
</svg>
