<?xml version="1.0" encoding="utf-8"?>
<!-- Generator: Adobe Illustrator 26.3.1, SVG Export Plug-In . SVG Version: 6.00 Build 0)  -->
<svg version="1.1" id="レイヤー_1" xmlns="http://www.w3.org/2000/svg" xmlns:xlink="http://www.w3.org/1999/xlink" x="0px"
	 y="0px" viewBox="0 0 48 48" style="enable-background:new 0 0 48 48;" xml:space="preserve">
<style type="text/css">
	.st0{fill:#614D40;}
	.st1{fill:#614D40;stroke:#614D40;stroke-width:0.5;stroke-miterlimit:10;}
	.st2{fill:none;stroke:#000000;stroke-width:2;stroke-miterlimit:10;}
</style>
<path class="st1" d="M24,36.4c-0.7,0-1.3-0.2-1.8-0.7s-0.7-1.1-0.7-1.8h5c0,0.7-0.2,1.3-0.7,1.8C25.3,36.2,24.7,36.4,24,36.4z
	 M19,32v-1.8H29V32H19z M19.2,28.3c-1.3-0.9-2.4-2-3.2-3.3c-0.8-1.3-1.2-2.8-1.2-4.5c0-2.5,0.9-4.6,2.7-6.5s4-2.7,6.5-2.7
	s4.6,0.9,6.5,2.7c1.8,1.8,2.7,4,2.7,6.5c0,1.7-0.4,3.1-1.2,4.5c-0.8,1.3-1.8,2.4-3.2,3.3H19.2z M19.9,26.5h8.3
	c1-0.7,1.8-1.5,2.3-2.5c0.6-1,0.9-2.2,0.9-3.4c0-2-0.7-3.8-2.2-5.2c-1.4-1.4-3.2-2.2-5.2-2.2s-3.8,0.7-5.2,2.2
	c-1.4,1.4-2.2,3.2-2.2,5.2c0,1.2,0.3,2.3,0.9,3.4C18.1,25,18.9,25.8,19.9,26.5z"/>
<path class="st0" d="M24,44c-2.7,0-5.3-0.5-7.8-1.6c-2.4-1-4.6-2.5-6.4-4.3s-3.2-3.9-4.3-6.4S4,26.7,4,24c0-2.8,0.5-5.4,1.6-7.8
	s2.5-4.5,4.3-6.3s3.9-3.2,6.4-4.3S21.3,4,24,4c2.8,0,5.4,0.5,7.8,1.6s4.6,2.5,6.3,4.3c1.8,1.8,3.2,3.9,4.3,6.3
	c1.1,2.4,1.6,5,1.6,7.8c0,2.7-0.5,5.3-1.6,7.8c-1,2.4-2.5,4.6-4.3,6.4c-1.8,1.8-3.9,3.2-6.4,4.3C29.4,43.5,26.8,44,24,44z M24,41
	c4.7,0,8.8-1.7,12-5c3.3-3.3,5-7.3,5-12c0-4.7-1.6-8.7-5-12c-3.3-3.3-7.3-5-12-5c-4.7,0-8.7,1.7-12,5s-5,7.3-5,12
	c0,4.7,1.7,8.7,5,12C15.3,39.3,19.3,41,24,41z"/>
</svg>
